<?xml version="1.0" encoding="UTF-8"?><svg id="b" xmlns="http://www.w3.org/2000/svg" viewBox="0 0 1105 2048"><path d="M467.5,939c-93.7,0-170-76.3-170-170v-85c0-93.7,76.3-170,170-170h340v-170H467.5c-45.9,0-90.4,9-132.4,26.8-40.5,17.1-76.8,41.6-108,72.8-31.2,31.2-55.7,67.5-72.8,108-17.8,42-26.8,86.5-26.8,132.4v85c0,45.9,9,90.4,26.8,132.4,17.1,40.5,41.6,76.8,72.8,108,5,5,10.2,9.9,15.5,14.6-5.3,4.7-10.5,9.5-15.5,14.6-31.2,31.2-55.7,67.5-72.8,108-17.8,42-26.8,86.5-26.8,132.4v85c0,45.9,9,90.4,26.8,132.4,17.1,40.5,41.6,76.8,72.8,108,31.2,31.2,67.5,55.7,108,72.8,42,17.8,86.5,26.8,132.4,26.8h85c45.9,0,90.4-9,132.4-26.8,13-5.5,25.5-11.7,37.6-18.7v45.5h170v-595h170v-170H467.5Zm255,425c0,93.7-76.3,170-170,170h-85c-93.7,0-170-76.3-170-170v-85c0-93.7,76.3-170,170-170h255v255Z"/></svg>