<svg xmlns="http://www.w3.org/2000/svg" viewBox="0 0 1056 2048"><path d="M956 567a351 351 0 0 0-324-215H424a349 349 0 0 0-324 215c-19 43-28 90-28 137v640a349 349 0 0 0 215 324c43 19 90 28 137 28h208a349 349 0 0 0 324-215c19-43 28-89 28-137V704c0-47-9-94-28-137ZM632 1568H424a224 224 0 0 1-224-224V704c0-123 101-224 224-224h208c124 0 224 101 224 224v640c0 124-100 224-224 224Z"/><path d="M512 804h262V700H512a230 230 0 0 0-230 230v188a229 229 0 0 0 230 230h262v-104H512c-69 0-125-57-125-126V930c0-69 56-126 125-126Z"/><path d="M784 1358H512a240 240 0 0 1-240-240V930a240 240 0 0 1 240-240h272v124H512c-64 0-115 52-115 116v188c0 64 52 115 115 115h272v125ZM512 710a219 219 0 0 0-220 220v188a219 219 0 0 0 220 220h252v-85H512c-75 0-135-60-135-135V930c0-75 60-136 135-136h252v-84H512Z"/></svg>