<svg xmlns="http://www.w3.org/2000/svg" viewBox="0 0 1105 2048"><path d="M993 552a338 338 0 0 0-313-208H425A339 339 0 0 0 85 684v680a339 339 0 0 0 340 340h255a339 339 0 0 0 340-340V684c0-46-9-90-27-132ZM680 1555H425c-105 0-191-86-191-191V684c0-105 86-191 191-191h255c106 0 191 86 191 191v680c0 106-86 191-191 191Z"/><path d="M530 844h227v-91H530a183 183 0 0 0-168 111c-9 22-14 45-14 70v180a179 179 0 0 0 111 167c22 9 46 14 71 14h227v-90H530c-50 0-91-41-91-91V934c0-50 41-90 91-90Z"/><path d="M766 1304H530a190 190 0 0 1-191-190V934a188 188 0 0 1 117-175c23-10 48-15 74-15h236v109H530c-45 0-82 36-82 81v180c0 45 37 82 82 82h236v108ZM530 762a172 172 0 0 0-173 172v180a170 170 0 0 0 105 158c22 9 44 14 68 14h218v-72H530c-55 0-100-45-100-100V934c0-55 45-99 100-99h218v-73H530Z"/><path d="M777 1315H530a201 201 0 0 1-202-201V934a200 200 0 0 1 123-185c25-11 52-16 79-16h247v131H530c-39 0-71 31-71 70v180c0 39 32 70 71 70h247v131ZM530 774a161 161 0 0 0-162 160v180a158 158 0 0 0 48 113 162 162 0 0 0 114 47h207v-49H530c-62 0-111-50-111-111V934c0-61 49-111 111-111h207v-50H530Z"/><path d="M786 1324H530a210 210 0 0 1-211-210V934a208 208 0 0 1 129-194c26-11 53-16 82-16h256v149H530c-34 0-62 27-62 61v180c0 34 28 61 62 61h256v149ZM530 742a193 193 0 0 0-193 192v180a189 189 0 0 0 118 177c23 10 49 15 75 15h238v-113H530c-44 0-80-35-80-79V934c0-44 36-79 80-79h238V742H530Zm216 541H530a172 172 0 0 1-157-103c-9-21-14-43-14-66V934a167 167 0 0 1 104-156c21-9 44-14 67-14h216v68H530c-57 0-102 46-102 102v180c0 56 45 102 102 102h216v67ZM530 782a153 153 0 0 0-153 152v180a148 148 0 0 0 45 107 153 153 0 0 0 108 44h198v-31H530c-67 0-120-54-120-120V934c0-66 53-120 120-120h198v-32H530Z"/></svg>