<svg xmlns="http://www.w3.org/2000/svg" viewBox="0 0 1056 2048"><path d="M916 567a351 351 0 0 0-324-215H464a349 349 0 0 0-324 215c-19 43-28 90-28 137v640a349 349 0 0 0 215 324c43 19 90 28 137 28h128a349 349 0 0 0 324-215c19-43 28-90 28-137V704c0-47-9-94-28-137Zm-324 969H464c-106 0-192-86-192-192V704c0-106 86-192 192-192h128c106 0 192 86 192 192v640c0 106-86 192-192 192Z"/><path d="M441 777c-47 46-73 109-73 175v144a247 247 0 0 0 248 248h72v-160h-72c-48 0-88-39-88-88V952c0-48 40-88 88-88h72V704h-72c-66 0-128 26-175 73Z"/></svg>