<svg xmlns="http://www.w3.org/2000/svg" viewBox="0 0 1056 2048"><path d="M996 567a351 351 0 0 0-324-215H384A349 349 0 0 0 60 567c-19 43-28 90-28 137v640a349 349 0 0 0 215 324c43 19 90 28 137 28h288a349 349 0 0 0 324-215c19-43 28-90 28-137V704c0-47-9-94-28-137Zm-324 969H384c-106 0-192-86-192-192V704c0-106 86-192 192-192h288c106 0 192 86 192 192v640c0 106-86 192-192 192Z"/><path d="M514 825h238v-95H514a209 209 0 0 0-210 209v170a205 205 0 0 0 62 148 209 209 0 0 0 148 61h238v-95H514c-63 0-114-51-114-114V939c0-63 51-114 114-114Z"/><path d="M768 1334H514a226 226 0 0 1-226-225V939a223 223 0 0 1 138-207c28-12 57-18 88-18h254v128H514c-54 0-98 43-98 97v170c0 54 44 98 98 98h254v128ZM514 747a192 192 0 0 0-193 192v170a190 190 0 0 0 118 177c24 10 49 15 75 15h221v-61H514c-72 0-131-59-131-131V939c0-72 59-131 131-131h221v-61H514Z"/></svg>