<svg xmlns="http://www.w3.org/2000/svg" viewBox="0 0 1105 2048"><path d="M951 901c18-42 27-86 27-132v-85a337 337 0 0 0-208-313c-42-18-87-27-132-27H468a337 337 0 0 0-314 208c-17 42-26 86-26 132v85a337 337 0 0 0 115 255l-16 15a338 338 0 0 0-99 240v85a337 337 0 0 0 207 313c42 18 87 27 133 27h170a337 337 0 0 0 313-208c18-42 27-86 27-132v-85a337 337 0 0 0-116-255l16-15c31-31 56-67 73-108ZM298 684c0-94 76-170 170-170h170c93 0 170 76 170 170v85c0 94-77 170-170 170H468c-94 0-170-76-170-170v-85Zm510 680c0 94-77 170-170 170H468c-94 0-170-76-170-170v-85c0-94 76-170 170-170h170c93 0 170 76 170 170v85Z"/></svg>