<svg xmlns="http://www.w3.org/2000/svg" viewBox="0 0 960 2048"><path d="M852 889c19-43 28-90 28-137v-48a349 349 0 0 0-215-324c-43-19-90-28-137-28h-96a349 349 0 0 0-324 215c-19 43-28 90-28 137v48a349 349 0 0 0 129 272 370 370 0 0 0-101 135c-19 43-28 90-28 137v48a349 349 0 0 0 215 324c43 19 90 28 137 28h96a349 349 0 0 0 324-215c19-43 28-90 28-137v-48a349 349 0 0 0-128-272 370 370 0 0 0 100-135ZM240 704c0-106 86-192 192-192h96c106 0 192 86 192 192v48c0 106-86 192-192 192h-96c-106 0-192-86-192-192v-48Zm480 640c0 106-86 192-192 192h-96c-106 0-192-86-192-192v-48c0-106 86-192 192-192h96c106 0 192 86 192 192v48Z"/></svg>