<svg xmlns="http://www.w3.org/2000/svg" viewBox="0 0 1056 2048"><path d="M112 1696h144L944 352H800L112 1696zM299 833V387h-49l-103 65v67l103-65v379H147v61h256v-61H299z"/><path d="M437 928H112V799h103V517l-103 65V432l128-80h94v447h103v129zM910 1287c0-18-3-35-9-51-5-16-13-30-23-43-10-12-22-21-35-28s-27-10-42-10H678v60h123c33 0 59 32 59 72l-207 314v61h257v-61H717l193-293v-21Z"/><path d="M944 1696H619v-105l206-313c-3-17-14-29-24-29H644v-129h157c20 0 40 5 58 14 17 9 33 22 46 38 12 15 22 33 29 52 7 20 10 42 10 63v32l-163 248h163v129Z"/></svg>