<svg xmlns="http://www.w3.org/2000/svg" viewBox="0 0 1105 2048"><path d="M43 1704h175l845-1360H887L43 1704zM274 912V380h-65L79 449v83l130-69v449H79v76h326v-76H274z"/><path d="M441 1024H43V876h130V523L43 592V427l157-83h110v532h131v148Zm-326-72h254v-4H115v4Zm0-482v2l107-56h-4l-103 54ZM923 1351l74-109a172 172 0 0 0-35-137c-12-14-26-25-42-33s-33-12-51-12H706v76h163c36 0 66 34 66 76l-261 380v76h326v-76H757l166-241Z"/><path d="M1036 1704H638v-123l260-379c-4-17-15-30-29-30H670v-148h199c24 0 46 5 67 16 20 9 38 23 53 41a208 208 0 0 1 47 131c0 25-1 25-3 37l-2 8-206 299h211v148Zm-326-72h254v-4H710v4Zm32-532h127c21 0 40 7 56 19a78 78 0 0 0-56-23H742v4Z"/></svg>