<svg xmlns="http://www.w3.org/2000/svg" viewBox="0 0 1056 2048"><path d="M216 1200h625v160H216zM799 527a250 250 0 0 0-226-153H293v114h280c74 0 134 62 134 137v46H439a195 195 0 0 0-143 60 204 204 0 0 0-58 145 208 208 0 0 0 122 190c25 10 52 16 79 16h134a240 240 0 0 0 134-41v41h112V625c0-34-7-67-20-98ZM573 968H439c-50 0-90-41-90-92s40-91 90-91h268v46c0 75-60 137-134 137Z"/><path d="M841 1104H685v-25l-8 4c-33 14-68 21-104 21H438a217 217 0 0 1-158-67 228 228 0 0 1-65-160 230 230 0 0 1 136-210c28-12 57-18 87-18h247v-24c0-63-51-115-112-115H271V352h302a263 263 0 0 1 189 80 277 277 0 0 1 78 193v479Zm-112-44h68V625a230 230 0 0 0-137-211c-28-12-57-18-87-18H315v70h258c86 0 156 71 156 159v68H439a174 174 0 0 0-127 53 184 184 0 0 0-53 130 186 186 0 0 0 110 169c22 10 46 15 70 15h134a217 217 0 0 0 122-37l34-23v60Zm-156-70H439c-62 0-112-51-112-114s50-113 112-113h290v68c0 87-70 159-156 159ZM439 807c-38 0-68 31-68 69s30 70 68 70h134c62 0 112-52 112-115v-24H439Z"/></svg>