<svg xmlns="http://www.w3.org/2000/svg" viewBox="0 0 1105 2048"><path d="M256 1269v-149h595v149zM800 495a213 213 0 0 0-195-130H341v106h264c59 0 106 48 106 107v53H473a184 184 0 0 0-171 113 185 185 0 0 0 171 259h132a210 210 0 0 0 106-29v29h106V578c0-29-6-57-17-83ZM605 897H473a80 80 0 0 1 0-160h238v53c0 59-47 107-106 107Z"/><path d="M838 1024H690v-16c-27 11-55 16-85 16H473a205 205 0 0 1-190-126 206 206 0 0 1 44-227 207 207 0 0 1 146-61h217v-32c0-47-38-86-85-86H320V344h285a230 230 0 0 1 215 143c12 29 18 59 18 91v446Zm-106-42h64V578a190 190 0 0 0-191-192H362v64h243c70 0 127 58 127 128v74H473a163 163 0 0 0-151 101 164 164 0 0 0 35 181 164 164 0 0 0 116 48h132a189 189 0 0 0 96-26l31-18v44Zm-127-64H473a101 101 0 0 1 0-202h259v74c0 71-57 128-127 128ZM473 758a59 59 0 0 0 0 118h132c47 0 85-39 85-86v-32H473Z"/></svg>