<svg xmlns="http://www.w3.org/2000/svg" viewBox="0 0 1105 2048"><path d="M256 1269v-149h595v149zM794 495a213 213 0 0 0-110-113c-25-11-52-17-80-17H501a200 200 0 0 0-146 63 213 213 0 0 0-60 150v213a219 219 0 0 0 60 150 207 207 0 0 0 146 62h103a200 200 0 0 0 146-62 213 213 0 0 0 60-150V578c0-29-5-57-16-83ZM604 897H501c-57 0-103-48-103-106V578c0-59 46-106 103-106h103c57 0 103 47 103 106v213c0 58-46 106-103 106Z"/><path d="M604 1024H501a220 220 0 0 1-161-68 234 234 0 0 1-66-165V578a239 239 0 0 1 66-165 226 226 0 0 1 161-69h103a220 220 0 0 1 161 69 238 238 0 0 1 66 165v212a239 239 0 0 1-66 166 226 226 0 0 1-161 68ZM501 386a179 179 0 0 0-131 56 192 192 0 0 0-55 136v212a195 195 0 0 0 114 177c23 10 47 15 72 15h103a179 179 0 0 0 131-56 192 192 0 0 0 55-135V578a195 195 0 0 0-114-177c-23-10-47-15-72-15H501Zm103 532H501c-69 0-124-57-124-127V578c0-70 55-127 124-127h103c69 0 124 57 124 127v213c0 70-55 127-124 127ZM501 493c-45 0-82 38-82 85v213c0 47 37 85 82 85h103c45 0 82-38 82-85V578c0-47-37-85-82-85H501Z"/></svg>