<svg xmlns="http://www.w3.org/2000/svg" viewBox="0 0 1056 2048"><path d="M799 527a250 250 0 0 0-226-153h-90a240 240 0 0 0-173 74 251 251 0 0 0-72 177v206a255 255 0 0 0 72 177 244 244 0 0 0 173 74h90a240 240 0 0 0 174-74 251 251 0 0 0 72-177V625c0-34-7-67-20-98ZM573 968h-90c-74 0-134-62-134-137V625c0-75 60-137 134-137h90c74 0 134 62 134 137v206c0 75-60 137-134 137Z"/><path d="M573 1104h-90a263 263 0 0 1-189-80 274 274 0 0 1-79-193V625a277 277 0 0 1 164-251c33-15 68-22 104-22h90a263 263 0 0 1 189 80 277 277 0 0 1 78 193v206a277 277 0 0 1-163 251c-33 15-68 22-104 22Zm-90-708a217 217 0 0 0-158 67 227 227 0 0 0-66 162v206a231 231 0 0 0 137 211c28 12 57 18 87 18h90a217 217 0 0 0 158-67 227 227 0 0 0 66-162V625a230 230 0 0 0-137-211c-28-12-57-18-87-18h-90Zm90 594h-90c-86 0-156-72-156-159V625c0-87 70-159 156-159h90c86 0 156 72 156 159v206c0 87-70 159-156 159Zm-90-480c-61 0-112 52-112 115v206c0 63 51 115 112 115h90c62 0 112-52 112-115V625c0-63-50-115-112-115h-90ZM216 1200h625v160H216z"/></svg>