<?xml version="1.0" encoding="UTF-8"?><svg id="b" xmlns="http://www.w3.org/2000/svg" viewBox="0 0 1105 2048"><path d="M722.5,1704c-68.1,0-132.1-26.5-180.3-74.7-48.2-48.2-74.7-112.2-74.7-180.3s26.5-132.1,74.7-180.3c48.2-48.2,112.2-74.7,180.3-74.7s132.1,26.5,180.3,74.7c48.2,48.2,74.7,112.2,74.7,180.3s-26.5,132.1-74.7,180.3c-48.2,48.2-112.2,74.7-180.3,74.7Zm0-382.5c-70.3,0-127.5,57.2-127.5,127.5s57.2,127.5,127.5,127.5,127.5-57.2,127.5-127.5-57.2-127.5-127.5-127.5Z"/><path d="M382.5,854c-68.1,0-132.1-26.5-180.3-74.7-48.2-48.2-74.7-112.2-74.7-180.3s26.5-132.1,74.7-180.3c48.2-48.2,112.2-74.7,180.3-74.7s132.1,26.5,180.3,74.7c48.2,48.2,74.7,112.2,74.7,180.3s-26.5,132.1-74.7,180.3c-48.2,48.2-112.2,74.7-180.3,74.7Zm0-382.5c-70.3,0-127.5,57.2-127.5,127.5s57.2,127.5,127.5,127.5,127.5-57.2,127.5-127.5-57.2-127.5-127.5-127.5Z"/><polygon points="127.5 1704 271.2 1704 977.5 344 833.8 344 127.5 1704"/></svg>