<svg xmlns="http://www.w3.org/2000/svg" viewBox="0 0 1105 2048"><path d="M43 1704h175l845-1360H887L43 1704zM988 1184a253 253 0 0 0-361 0c-48 48-74 112-74 180v85a253 253 0 0 0 255 255 253 253 0 0 0 255-255v-85c0-68-27-132-75-180Zm-181 371c-58 0-106-47-106-106v-85a106 106 0 0 1 213 0v85c0 59-48 106-106 106ZM478 419a253 253 0 0 0-361 0c-48 48-75 112-75 180v85a253 253 0 0 0 256 255 253 253 0 0 0 255-255v-85c0-68-27-132-75-180ZM298 790c-59 0-107-47-107-106v-85a106 106 0 0 1 213 0v85c0 59-48 106-107 106Z"/></svg>