<svg xmlns="http://www.w3.org/2000/svg" viewBox="0 0 1056 2048"><path d="M956 567a351 351 0 0 0-324-215H424a349 349 0 0 0-324 215c-19 43-28 90-28 137v208a349 349 0 0 0 215 324c43 19 90 28 137 28h208a349 349 0 0 0 324-215c19-43 28-89 28-137V704c0-47-9-94-28-137Zm-324 569H424a224 224 0 0 1-224-224V704c0-123 101-224 224-224h208c124 0 224 101 224 224v208c0 124-100 224-224 224Z"/><path d="M612 852a152 152 0 0 0 81-83c8-19 12-39 12-60v-18a156 156 0 0 0-93-142c-19-9-39-13-59-13H355v544h111V917l126 163h141L566 864c16-2 31-5 46-12Zm-59-100h-87V648h87c23 0 41 20 41 43v18c0 23-19 43-41 43Z"/></svg>