<svg xmlns="http://www.w3.org/2000/svg" viewBox="0 0 1105 2048"><path d="M993 552a338 338 0 0 0-313-208H425A339 339 0 0 0 85 684v255a339 339 0 0 0 340 340h255a339 339 0 0 0 340-340V684c0-46-9-90-27-132Zm-313 578H425c-105 0-191-86-191-191V684c0-105 86-191 191-191h255c106 0 191 86 191 191v255c0 106-86 191-191 191Z"/><path d="M613 831a109 109 0 0 0 54-58c6-13 8-28 8-42v-28a113 113 0 0 0-30-77 100 100 0 0 0-72-31H419v436h52V840l139 190h65L535 841h38c14 0 27-3 40-9Zm-142-46V649h102c28 0 51 24 51 54v27c0 31-23 55-51 55H471Z"/><path d="M749 1067H592l-84-114v114H382V557h191a134 134 0 0 1 99 44c13 13 23 29 30 46 7 18 10 37 10 56v27a151 151 0 0 1-40 103 132 132 0 0 1-67 40l144 194ZM508 748h65c8 0 14-8 14-17v-28c0-9-6-17-14-17h-65v62Z"/></svg>