<svg xmlns="http://www.w3.org/2000/svg" viewBox="0 0 1056 2048"><path d="M572 700a79 79 0 0 0 42-43c4-10 6-21 6-32v-11a84 84 0 0 0-23-57 78 78 0 0 0-55-24H435v310h35V707l105 136h45L516 707h26c10 0 21-3 30-7Zm-102-30V570h72c23 0 42 20 42 44v11c0 25-19 44-42 44h-72Z"/><path d="M662 864h-98l-73-96v96h-77V512h128a96 96 0 0 1 70 30 104 104 0 0 1 29 72v11a104 104 0 0 1-29 72 100 100 0 0 1-55 29l105 138ZM491 649h51c12 0 22-11 22-24v-11c0-13-10-24-22-24h-51v59Z"/><path d="M528 1024a335 335 0 0 1-310-467 334 334 0 0 1 441-179 334 334 0 0 1 179 441 334 334 0 0 1-310 205Zm0-576a240 240 0 1 0 1 481 240 240 0 0 0-1-481Z"/></svg>