<svg xmlns="http://www.w3.org/2000/svg" viewBox="0 0 1056 2048"><path d="M492 375c25 0 45 22 45 50s-20 50-45 50c0 33 24 60 54 60h64v50h-64a99 99 0 0 1-71-32 119 119 0 0 1-29-78v-50c0-28 20-50 46-50Z"/><path d="M498 597c-15-7-28-16-40-29a140 140 0 0 1-35-93v-50c0-40 31-73 69-73s68 33 68 73c0 30-17 56-42 67 6 12 16 20 28 20h87v96h-87c-16 0-33-4-48-11Zm89-39h-41a79 79 0 0 1-71-48c4 10 10 19 17 27s16 14 25 18c9 5 19 7 29 7h41v-4ZM469 425v27h23c12 0 22-12 22-27s-10-27-22-27c-13 0-23 12-23 27Z"/></svg>