<svg xmlns="http://www.w3.org/2000/svg" viewBox="0 0 1056 2048"><path d="M337 1425a185 185 0 0 0 92 99c21 9 44 14 67 14h64a163 163 0 0 0 94-30v157c0 55-42 101-94 101H362v84h198a173 173 0 0 0 123-54 187 187 0 0 0 50-131v-338a195 195 0 0 0-51-131 172 172 0 0 0-122-54h-63a173 173 0 0 0-123 54 187 187 0 0 0-51 131v26c0 25 4 49 14 72Zm159-199h63c53 0 95 46 95 101v26c0 56-42 101-94 101h-64c-52 0-94-46-94-101v-26c0-55 42-101 94-101Z"/><path d="M560 1872H340v-128h220c40 0 72-36 72-79v-120c-23 10-47 15-72 15h-63a186 186 0 0 1-139-61 217 217 0 0 1-57-146v-26a217 217 0 0 1 57-146 194 194 0 0 1 139-61h63a186 186 0 0 1 138 61 208 208 0 0 1 57 147v337a217 217 0 0 1-57 146 194 194 0 0 1-138 61Zm-176-44h176a142 142 0 0 0 106-47 164 164 0 0 0 45-116v-337a174 174 0 0 0-45-117 149 149 0 0 0-106-47h-63a142 142 0 0 0-107 47 164 164 0 0 0-45 117v25a164 164 0 0 0 45 116 149 149 0 0 0 107 47h63a142 142 0 0 0 82-26l34-24v199c0 67-52 123-116 123H384v40Zm176-352h-63c-65 0-117-55-117-123v-25c0-68 52-124 117-124h63c64 0 116 56 116 124v25c0 68-52 123-116 123Zm-63-228c-41 0-73 36-73 79v26c0 43 32 79 73 79h63c40 0 72-36 72-79v-26c0-43-32-79-72-79h-63Z"/></svg>