<svg xmlns="http://www.w3.org/2000/svg" viewBox="0 0 1056 2048"><path d="M720 1425c9-23 13-47 13-72v-26a195 195 0 0 0-51-131 172 172 0 0 0-123-54h-63a173 173 0 0 0-123 54 187 187 0 0 0-50 131v26a195 195 0 0 0 63 143 179 179 0 0 0-50 71c-9 23-13 47-13 72v26a195 195 0 0 0 51 131 172 172 0 0 0 122 54h63a173 173 0 0 0 123-54 187 187 0 0 0 51-131v-26a195 195 0 0 0-63-143 179 179 0 0 0 50-71Zm-318-98c0-55 42-101 95-101h63c52 0 94 46 94 101v26c0 56-42 101-94 101h-63c-53 0-95-46-95-101v-26Zm252 338c0 55-42 101-94 101h-64c-52 0-94-46-94-102v-25c0-56 42-101 94-101h64c52 0 94 46 94 101v26Z"/><path d="M560 1872h-63a186 186 0 0 1-139-61 208 208 0 0 1-57-146v-26a217 217 0 0 1 54-143 217 217 0 0 1-54-143v-26a217 217 0 0 1 57-146 194 194 0 0 1 139-61h63a186 186 0 0 1 138 61 208 208 0 0 1 57 146v26a210 210 0 0 1-54 143 217 217 0 0 1 54 143v26a217 217 0 0 1-57 146 194 194 0 0 1-138 61Zm-63-708a142 142 0 0 0-107 47 164 164 0 0 0-45 116v26a174 174 0 0 0 45 116l11 10 19 17-19 16-11 11a164 164 0 0 0-45 116v26a174 174 0 0 0 45 116 149 149 0 0 0 107 47h63a142 142 0 0 0 106-47 164 164 0 0 0 45-116v-26a174 174 0 0 0-45-116l-11-11-18-16 18-17 11-10a174 174 0 0 0 45-116v-26a174 174 0 0 0-45-116 149 149 0 0 0-106-47h-63Zm63 624h-63c-65 0-117-55-117-123v-26c0-68 52-123 117-123h63c64 0 116 55 116 123v26c0 68-52 123-116 123Zm-63-228c-41 0-73 36-73 79v26c0 43 32 79 73 79h63c40 0 72-36 72-80v-25c0-43-32-79-72-79h-63Zm63-84h-63c-65 0-117-55-117-123v-26c0-67 52-123 117-123h63c64 0 116 56 116 123v26c0 68-52 123-116 123Zm-63-228c-41 0-73 36-73 79v26c0 43 32 79 73 79h63c40 0 72-36 72-79v-26c0-43-32-79-72-79h-63Z"/></svg>