<svg xmlns="http://www.w3.org/2000/svg" viewBox="0 0 1056 2048"><path d="M720 1079a185 185 0 0 0-93-98c-21-10-44-15-68-15h-63a173 173 0 0 0-123 54 187 187 0 0 0-50 131v338a195 195 0 0 0 51 131 172 172 0 0 0 122 54h63a173 173 0 0 0 123-54 187 187 0 0 0 51-131v-338c0-25-4-49-13-72Zm-223-29h63c44 0 82 34 92 78l-250 267v-244c0-55 42-101 95-101Zm63 540h-63c-45 0-83-34-93-78l250-267v243c0 56-42 102-94 102Z"/><path d="M560 1696h-63a186 186 0 0 1-139-61 208 208 0 0 1-57-146v-338a217 217 0 0 1 57-146 194 194 0 0 1 139-61h63a186 186 0 0 1 138 61 217 217 0 0 1 57 146v338a217 217 0 0 1-57 146 194 194 0 0 1-138 61Zm-63-708a142 142 0 0 0-107 47 164 164 0 0 0-45 116v337a174 174 0 0 0 45 117 149 149 0 0 0 107 47h63a142 142 0 0 0 106-47 164 164 0 0 0 45-116v-338a164 164 0 0 0-45-116 149 149 0 0 0-106-47h-63Zm63 624h-63c-27 0-53-10-74-28-20-17-34-41-40-67l-3-12 296-316v300c0 67-52 123-116 123Zm-131-94c11 30 37 50 68 50h63c40 0 72-36 72-79v-188l-203 217Zm-49-67v-300c0-67 52-123 117-123h63c26 0 52 10 73 28 20 17 34 41 40 68l3 11-296 316Zm117-379c-41 0-73 36-73 79v188l203-217a73 73 0 0 0-67-50h-63Z"/></svg>