<svg xmlns="http://www.w3.org/2000/svg" viewBox="0 0 1056 2048"><path d="M720 1567a185 185 0 0 0-93-99c-21-9-44-14-68-14H402v-228h292v-84H323v396h237c52 0 94 45 94 101v25c0 56-42 102-94 102H362v84h198a173 173 0 0 0 123-54 187 187 0 0 0 50-132v-25c0-25-4-49-13-72Z"/><path d="M560 1872H340v-128h220c40 0 72-36 72-79v-26c0-43-32-79-72-79H301v-440h415v128H424v184h136a186 186 0 0 1 138 61 208 208 0 0 1 57 146v26a217 217 0 0 1-57 146 194 194 0 0 1-138 61Zm-176-44h176a142 142 0 0 0 106-47 164 164 0 0 0 45-116v-26a164 164 0 0 0-45-116 149 149 0 0 0-106-47H380v-272h292v-40H345v352h215c64 0 116 55 116 123v26c0 67-52 123-116 123H384v40Z"/></svg>