<svg xmlns="http://www.w3.org/2000/svg" viewBox="0 0 1056 2048"><path d="M707 626c8-20 12-41 12-63v-22a162 162 0 0 0-161-162h-59a162 162 0 0 0-162 162v22a162 162 0 0 0 59 125 167 167 0 0 0-46 62c-9 20-13 41-13 63v22a162 162 0 0 0 162 162h59a162 162 0 0 0 161-162v-22a162 162 0 0 0-59-125 167 167 0 0 0 47-62Zm-297-85c0-49 40-89 89-89h59c48 0 88 40 88 89v22c0 49-40 88-89 88h-58c-49 0-89-39-89-88v-22Zm236 294c0 49-40 88-89 88h-58c-49 0-89-39-89-88v-22c0-49 40-88 89-88h58c49 0 89 39 89 88v22Z"/><path d="M557 1024h-59a187 187 0 0 1-173-115c-10-24-15-48-15-74v-22a187 187 0 0 1 47-125 187 187 0 0 1-47-125v-22a187 187 0 0 1 115-174c23-10 48-15 74-15h58a187 187 0 0 1 174 116c10 23 15 48 15 73v22a187 187 0 0 1-47 125 187 187 0 0 1 47 125v22a187 187 0 0 1-115 174c-23 10-48 15-74 15Zm-59-618a135 135 0 0 0-134 135v22a135 135 0 0 0 49 104l25 21-25 21a138 138 0 0 0-39 52c-7 16-10 34-10 52v22a135 135 0 0 0 135 135h58a135 135 0 0 0 135-135v-22a135 135 0 0 0-49-104l-25-21 25-21a138 138 0 0 0 39-51c7-17 10-35 10-53v-22a135 135 0 0 0-135-135h-59Zm59 544h-59c-63 0-115-51-115-115v-22c0-64 52-115 115-115h59c64 0 116 51 116 115v22c0 64-52 115-116 115Zm-59-198c-33 0-61 27-61 61v22c0 34 28 61 61 61h59c34 0 62-27 62-61v-22c0-34-28-61-62-61h-59Zm59-74h-59c-63 0-115-52-115-115v-22c0-64 52-116 115-116h59c64 0 116 52 116 116v22c0 63-52 115-116 115Zm-59-198c-33 0-61 27-61 61v22c0 34 28 61 61 61h59c34 0 62-27 62-61v-22c0-34-28-61-62-61h-59Z"/></svg>