<svg xmlns="http://www.w3.org/2000/svg" viewBox="0 0 1105 2048"><path d="M400 629c6 18 16 35 28 49 12 13 26 24 41 32 16 8 33 12 51 12h65a113 113 0 0 0 65-20v134c0 42-29 76-65 76H422v76h163c18 0 35-4 51-12 15-8 29-19 41-33s22-30 28-48c7-19 11-39 11-59V532c0-21-4-41-11-59-6-18-16-35-28-49s-26-25-41-32c-16-8-33-12-51-12h-65c-18 0-35 4-51 12-16 7-30 18-42 32s-21 31-28 49c-6 18-10 38-10 59v38c0 20 4 40 10 59Zm120-173h65c36 0 65 34 65 76v38c0 42-29 76-65 76h-65c-36 0-65-34-65-76v-38c0-42 29-76 65-76Z"/><path d="M585 1024H386V876h199c16 0 29-18 29-40v-81c-9 2-19 3-29 3h-65c-23 0-46-5-67-16-20-10-38-23-53-41a208 208 0 0 1-47-131v-38c0-25 5-49 13-72 8-22 19-42 34-59 15-18 33-32 53-42 21-10 44-15 67-15h65c23 0 46 5 67 16 20 9 38 23 53 41a208 208 0 0 1 47 131v304c0 25-5 49-13 71-8 23-19 43-34 60-15 18-33 31-53 41-21 11-44 16-67 16Zm-127-72h127c12 0 24-3 35-8 8-4 15-9 21-15a94 94 0 0 1-56 19H458v4Zm6-289a78 78 0 0 0 56 23h65a78 78 0 0 0 45-14l50-33v-29c-15 42-52 72-95 72h-65c-21 0-40-7-56-19Zm56-171c-16 0-29 18-29 40v38c0 22 13 40 29 40h65c16 0 29-18 29-40v-38c0-22-13-40-29-40h-65Zm0-76c-12 0-24 3-35 8-8 4-15 9-21 15 16-12 35-19 56-19h65c21 0 40 7 56 19a78 78 0 0 0-56-23h-65Z"/></svg>