<svg xmlns="http://www.w3.org/2000/svg" viewBox="0 0 1105 2048"><path d="M705 739c-6-18-16-35-28-49-12-13-26-24-41-32-16-8-33-12-51-12H455V456h228v-76H389v342h196c36 0 65 34 65 76v38c0 42-29 76-65 76H422v76h163c18 0 35-4 51-12 15-8 29-19 41-33s22-30 28-48c7-19 11-39 11-59v-38c0-21-4-41-11-59Z"/><path d="M585 1024H386V876h199c16 0 29-18 29-40v-38c0-22-13-40-29-40H353V344h366v148H491v118h94c23 0 46 5 67 16 20 10 38 23 53 41a208 208 0 0 1 47 131v38c0 25-4 49-13 72-8 22-19 42-34 59-15 18-33 32-53 42-21 10-44 15-67 15Zm-127-72h127c12 0 24-3 35-8 8-4 15-9 21-15a94 94 0 0 1-56 19H458v4Zm-33-266h160c21 0 40 7 56 19a78 78 0 0 0-56-23H425v4Zm0-266h222v-4H425v4Z"/></svg>