<svg xmlns="http://www.w3.org/2000/svg" viewBox="0 0 1105 2048"><path d="M689 629c7-19 10-38 10-59v-38c0-20-3-40-10-59-6-18-16-35-28-48-12-14-26-25-41-33-16-8-34-12-51-12H406v76h163c36 0 65 34 65 76v38c0 42-29 76-65 76H406v76h163c36 0 65 34 65 76v38c0 42-29 76-65 76H406v76h163c17 0 35-4 51-12 15-8 29-19 41-33s22-30 28-48c7-19 10-39 10-59v-38c0-21-3-41-10-59a155 155 0 0 0-34-55l6-7c12-14 22-30 28-48Z"/><path d="M569 1024H370V876h199c16 0 29-18 29-40v-38c0-22-13-40-29-40H370V610h199c16 0 29-18 29-40v-38c0-22-13-40-29-40H370V344h199c23 0 45 5 66 16 20 9 38 23 53 41a208 208 0 0 1 47 131v38a191 191 0 0 1-34 114 198 198 0 0 1 34 114v38a193 193 0 0 1-47 131c-15 18-33 32-53 41-21 11-43 16-66 16Zm-127-72h127c12 0 24-3 35-8l21-15a94 94 0 0 1-56 19H442v4Zm0-266h127c21 0 41 7 57 20l-21-22 21-21a94 94 0 0 1-57 19H442v4Zm0-266h127c20 0 40 7 56 19l-21-15c-11-5-23-8-35-8H442v4Z"/></svg>