<svg xmlns="http://www.w3.org/2000/svg" viewBox="0 0 1056 2048"><path d="M349 626a160 160 0 0 0 149 99h59a162 162 0 0 0 89-26v136c0 49-40 88-89 88H373l1 74h183a162 162 0 0 0 162-162V541a162 162 0 0 0-162-162h-59a162 162 0 0 0-161 162v22c0 22 4 43 12 63Zm149-174h59c49 1 89 40 89 89v22c0 49-40 88-89 88h-59c-48 0-88-39-88-88v-22c0-49 40-89 88-89Z"/><path d="M557 1024H346V896h211c34 0 62-27 62-61v-93c-20 6-41 10-62 10h-59a187 187 0 0 1-173-115c-10-24-15-49-15-74v-22a187 187 0 0 1 115-174c23-10 48-15 74-15h58a187 187 0 0 1 174 115c10 24 15 49 15 74v294a187 187 0 0 1-115 174c-23 10-48 15-74 15Zm-157-54h157a135 135 0 0 0 135-135V541a135 135 0 0 0-135-135h-59a135 135 0 0 0-134 135v22a135 135 0 0 0 135 135h58a135 135 0 0 0 74-22l42-27v186c0 64-52 115-116 115H401v20Zm157-292h-59c-63 0-115-51-115-115v-22c0-64 52-115 115-115h59c64 0 116 51 116 115v22c0 64-52 115-116 115Zm-59-198c-33 0-61 27-61 61v22c0 34 28 61 61 61h59c34 0 62-27 62-61v-22c0-34-28-61-62-61h-59Z"/></svg>