<svg xmlns="http://www.w3.org/2000/svg" viewBox="0 0 1056 2048"><path d="M700 481c9-23 13-47 13-72v-26a195 195 0 0 0-50-131 172 172 0 0 0-123-54H342v84h198c52 0 94 46 94 101v26c0 55-42 101-94 101H342v84h198c52 0 94 45 94 101v25c0 56-42 102-94 102H342v84h198a173 173 0 0 0 123-54 187 187 0 0 0 51-132v-25a195 195 0 0 0-64-143 179 179 0 0 0 50-71Z"/><path d="M540 928H320V800h220c40 0 72-36 72-79v-26c1-43-32-79-72-79H320V488h220c40 0 72-36 72-79v-25c1-44-32-80-72-80H320V176h220a186 186 0 0 1 139 61 208 208 0 0 1 56 146v26a210 210 0 0 1-54 143 217 217 0 0 1 54 143v26a217 217 0 0 1-56 146 194 194 0 0 1-139 61Zm-176-44h176a142 142 0 0 0 107-47 164 164 0 0 0 44-116v-26a174 174 0 0 0-44-116l-11-11-19-16 19-17a158 158 0 0 0 43-62c8-21 12-42 12-64v-26a174 174 0 0 0-44-116 149 149 0 0 0-107-47H364v40h176c64 0 116 55 116 123v26c1 68-52 123-116 123H364v40h176c64 0 116 55 116 123v25c1 68-52 124-116 124H364v40Z"/></svg>