<svg xmlns="http://www.w3.org/2000/svg" viewBox="0 0 1056 2048"><path d="M688 626c9-20 13-41 13-63v-22a162 162 0 0 0-162-162H355v74h184c49 0 88 39 88 88v22c0 49-39 88-88 88H355v74h184c49 0 88 39 88 88v22c0 49-39 89-88 89H355v73h184a162 162 0 0 0 162-162v-22a162 162 0 0 0-59-125 167 167 0 0 0 46-62Z"/><path d="M539 1024H328V896h211c34 0 61-27 61-61v-22c0-34-27-61-61-61H328V624h211c34 0 61-27 61-61v-22c0-34-27-62-61-62H328V352h211a187 187 0 0 1 174 115c10 23 15 48 15 74v22a187 187 0 0 1-47 125 187 187 0 0 1 47 125v22a187 187 0 0 1-115 174c-24 10-49 15-74 15Zm-157-54h157a135 135 0 0 0 135-135v-22a135 135 0 0 0-49-104l-26-21 26-21a138 138 0 0 0 38-52l25 11-25-11c7-16 11-34 11-52v-22a135 135 0 0 0-135-135H382v19h157c64 0 115 52 115 116v22c0 63-51 115-115 115H382v20h157c64 0 115 51 115 115v22c0 64-51 115-115 115H382v20Z"/></svg>