<svg xmlns="http://www.w3.org/2000/svg" viewBox="0 0 1056 2048"><path d="M720 623a185 185 0 0 0-93-98c-21-10-44-15-68-15h-63a163 163 0 0 0-94 30V383c0-55 42-101 94-101h198v-84H496a173 173 0 0 0-123 54 187 187 0 0 0-50 131v338a195 195 0 0 0 51 131 172 172 0 0 0 122 54h63a173 173 0 0 0 123-54 187 187 0 0 0 51-131v-26c0-25-4-49-13-72ZM560 822h-63c-53 0-95-46-95-101v-26c0-55 42-101 95-101h63c52 0 94 46 94 101v26c0 55-42 101-94 101Z"/><path d="M560 928h-63a186 186 0 0 1-139-61 208 208 0 0 1-57-146V383a217 217 0 0 1 57-146 194 194 0 0 1 139-61h219v128H496c-40 0-72 36-72 79v120c23-10 47-15 72-15h64a186 186 0 0 1 138 61 208 208 0 0 1 57 146v25a217 217 0 0 1-57 147 194 194 0 0 1-138 61Zm-63-708a142 142 0 0 0-107 47 164 164 0 0 0-45 116v338a174 174 0 0 0 45 116 149 149 0 0 0 107 47h63a142 142 0 0 0 106-47 164 164 0 0 0 45-116v-26a164 164 0 0 0-45-116 149 149 0 0 0-106-47h-63a142 142 0 0 0-83 26l-34 24V383c0-68 52-123 116-123h176v-40H496Zm63 624h-63c-65 0-117-55-117-123v-26c0-68 52-123 117-123h63c64 0 116 55 116 123v26c0 68-52 123-116 123Zm-63-228c-41 0-73 36-73 79v26c0 43 32 79 73 79h63c40 0 72-36 72-79v-26c0-43-32-79-72-79h-63Z"/></svg>