<svg xmlns="http://www.w3.org/2000/svg" viewBox="0 0 1056 2048"><path d="M707 750a160 160 0 0 0-149-99H410V453h273v-74H337v346h220c49 0 89 39 89 88v22c0 49-40 89-89 89H373v73h184a162 162 0 0 0 162-162v-22c0-22-4-43-12-63Z"/><path d="M557 1024H346V896h211c34 0 62-27 62-61v-22c0-34-28-61-62-61H310V352h400v128H437v144h120a187 187 0 0 1 174 116c10 23 15 48 15 73v22a187 187 0 0 1-115 174c-23 10-48 15-74 15Zm-157-54h157a135 135 0 0 0 135-135v-22a134 134 0 0 0-135-135H383V426h272v-20H365v292h193c64 0 116 51 116 115v22c0 64-52 115-116 115H400v20Z"/></svg>