<svg xmlns="http://www.w3.org/2000/svg" viewBox="0 0 1056 2048"><path d="M707 750a160 160 0 0 0-149-99h-59a162 162 0 0 0-89 26V541c0-49 40-88 89-88h184v-74H499a162 162 0 0 0-162 162v294a162 162 0 0 0 162 162h59a162 162 0 0 0 161-162v-22c0-22-4-43-12-63ZM558 924h-59c-49 0-89-40-89-89v-22c0-49 40-88 89-88h59c48 0 88 39 88 88v22c0 49-40 89-89 89Z"/><path d="M557 1024h-59a187 187 0 0 1-173-115c-10-24-15-48-15-74V541a187 187 0 0 1 115-174c23-10 48-15 74-15h210v128H498c-33 0-61 27-61 61v94c20-7 40-11 61-11h59a187 187 0 0 1 174 116c10 23 15 48 15 73v22a187 187 0 0 1-115 174c-23 10-48 15-74 15Zm-59-618a135 135 0 0 0-134 135v294a135 135 0 0 0 135 135h58a135 135 0 0 0 135-135v-22a134 134 0 0 0-135-135h-59a135 135 0 0 0-73 22l-42 27V541c0-64 52-115 115-115h157v-20H498Zm59 544h-59c-63 0-115-51-115-115v-22c0-64 52-115 115-115h59c64 0 116 51 116 115v22c0 64-52 115-116 115Zm-59-198c-33 0-61 27-61 61v22c0 34 28 61 61 61h59c34 0 62-27 62-61v-22c0-34-28-61-62-61h-59Z"/></svg>