<svg xmlns="http://www.w3.org/2000/svg" viewBox="0 0 1105 2048"><path d="M705 629c7-19 11-38 11-59v-38c0-20-4-40-11-59-6-18-16-35-28-48-12-14-26-25-41-33-16-8-33-12-51-12h-65c-18 0-35 4-51 12s-29 18-41 32-22 31-28 49c-7 19-11 39-11 59v38c0 21 4 40 11 59a155 155 0 0 0 34 55l-6 7c-12 13-22 30-28 48-7 19-11 38-11 59v38c0 21 4 40 11 59 6 18 16 35 28 49 12 13 25 24 41 32s33 12 51 12h65c18 0 35-4 51-12 15-8 29-18 41-32s22-31 28-49c7-19 11-38 11-59v-38c0-20-4-40-11-59a155 155 0 0 0-34-55l6-6c12-14 22-31 28-49Zm-250-97c0-42 29-76 65-76h65c36 0 65 34 65 76v38c0 42-29 76-65 76h-65c-36 0-65-34-65-76v-38Zm195 304c0 42-29 76-65 76h-65c-36 0-65-34-65-76v-38c0-42 29-76 65-76h65c36 0 65 34 65 76v38Z"/><path d="M585 1024h-65c-23 0-46-5-67-16-20-10-38-23-53-41a208 208 0 0 1-47-131v-38a210 210 0 0 1 34-114 198 198 0 0 1-34-114v-38c0-25 5-49 13-72 8-22 19-42 34-59 15-18 33-32 53-42 21-10 44-15 67-15h65c23 0 46 5 67 16 20 9 38 23 53 41a208 208 0 0 1 47 131v38c0 25-5 49-13 71-5 16-13 30-21 43a198 198 0 0 1 34 114v38c0 25-5 49-13 71-8 23-19 43-34 60-15 18-33 31-53 41-21 11-44 16-67 16Zm-121-95a78 78 0 0 0 56 23h65c12 0 24-3 35-8 8-4 15-9 21-15a94 94 0 0 1-56 19h-65c-21 0-40-7-56-19Zm56-171c-16 0-29 18-29 40v38c0 22 13 40 29 40h65c16 0 29-18 29-40v-38c0-22-13-40-29-40h-65Zm0-72h65c21 0 41 7 57 20l-21-22 21-21a94 94 0 0 1-57 19h-65c-21 0-41-7-57-19l21 21-21 22c16-13 36-20 57-20Zm0-194c-16 0-29 18-29 40v38c0 22 13 40 29 40h65c16 0 29-18 29-40v-38c0-22-13-40-29-40h-65Zm0-76c-12 0-24 3-35 8-8 4-15 9-21 15 16-12 35-19 56-19h65c21 0 40 7 56 19a78 78 0 0 0-56-23h-65Z"/></svg>