<svg xmlns="http://www.w3.org/2000/svg" viewBox="0 0 1105 2048"><path d="M705 473c-6-18-16-35-28-48-12-14-26-25-41-33-16-8-33-12-51-12h-65c-18 0-35 4-51 12s-29 18-41 32-22 31-28 49c-7 19-11 39-11 59v304c0 21 4 40 11 59 6 18 16 35 28 49 12 13 25 24 41 32s33 12 51 12h65c18 0 35-4 51-12 15-8 29-18 41-32s22-31 28-49c7-19 11-38 11-59V532c0-20-4-40-11-59Zm-185-17h65c32 0 58 27 64 62L454 744V532c0-42 30-76 66-76Zm65 456h-65c-32 0-59-27-64-62l194-226v212c0 42-29 76-65 76Z"/><path d="M585 1024h-65c-23 0-46-5-67-16-20-10-38-23-53-41a208 208 0 0 1-47-131V532c0-25 5-49 13-72 8-22 19-42 34-59 15-18 33-32 53-42 21-10 44-15 67-15h65c23 0 46 5 67 16 20 9 38 23 53 41a208 208 0 0 1 47 131v304c0 25-5 49-13 71-8 23-19 43-34 60-15 18-33 31-53 41-21 11-44 16-67 16Zm-121-94 21 14c11 5 23 8 35 8h65c12 0 24-3 35-8 8-4 15-9 21-15a94 94 0 0 1-56 19h-65c-21 0-40-7-56-19Zm32-71c5 10 14 17 24 17h65c16 0 30-18 30-40V721L496 859Zm24-367c-16 0-29 18-29 40v115l118-138c-5-10-14-17-24-17h-65Zm0-76c-12 0-24 3-35 8-8 4-15 9-21 15 16-12 35-19 56-19h65c21 0 40 7 56 19a78 78 0 0 0-56-22h-65Z"/></svg>