<svg xmlns="http://www.w3.org/2000/svg" viewBox="0 0 1105 2048"><path d="M43 1704h175l845-1360H887L43 1704zM961 1060v266H765v-266h-65v342h261v266h66v-608h-66Z"/><path d="M1063 1704H925v-266H664v-414h137v266h124v-266h138v680Zm-327-338h255v-4H736v4ZM405 629c6-19 10-38 10-59v-38c0-20-4-40-10-59-7-18-16-35-28-48-12-14-26-25-42-33s-33-12-51-12H121v76h163c36 0 65 34 65 76v38c1 42-29 76-65 76H121v76h163c36 0 65 34 65 76v38c1 42-29 76-65 76H121v76h163c18 0 35-4 51-12s30-19 42-33 21-30 28-48c6-19 10-39 10-59v-38c0-21-4-41-10-59a155 155 0 0 0-34-55l6-7c12-14 21-30 28-48Z"/><path d="M284 1024H85V876h199c16 0 29-18 29-40v-38c1-22-13-40-29-40H85V610h199c16 0 29-18 29-40v-38c1-22-13-40-29-40H85V344h199c23 0 46 5 67 16 20 9 38 23 53 41a208 208 0 0 1 47 131v38c0 25-5 49-13 72-5 15-13 29-21 42a198 198 0 0 1 34 114v38c0 25-5 49-13 72-8 22-19 42-34 59-15 18-33 32-53 41-21 11-44 16-67 16Zm-127-72h127c12 0 24-3 35-8 8-4 15-9 21-15a94 94 0 0 1-56 19H157v4Zm0-266h127c21 0 41 7 57 20l-21-22 21-21a94 94 0 0 1-57 19H157v4Zm0-266h127c21 0 40 7 56 19a78 78 0 0 0-56-23H157v4Z"/></svg>