<svg xmlns="http://www.w3.org/2000/svg" viewBox="0 0 1056 2048"><path d="M112 1696h144L944 352H800L112 1696zM860 1155v223H703v-224h-50v284h207v224h49v-507h-49Z"/><path d="M944 1696H826v-223H619v-353h118v223h89v-223h118v576zM382 589c5-16 8-34 8-52v-18a139 139 0 0 0-32-94c-9-12-21-21-34-28s-28-10-42-10H159v60h123c32 0 59 33 59 72v18c0 40-27 73-59 73H159v60h123c32 0 59 33 59 73v18c0 40-27 72-59 72H159v61h123c14 0 29-4 42-11s25-16 34-28c10-12 18-27 24-42 5-17 8-34 8-52v-18c0-18-3-36-8-52a139 139 0 0 0-31-51l7-9c10-12 18-26 24-42Z"/><path d="M282 928H124V799h158c11 0 24-16 24-38v-18c0-23-13-38-24-38H124V575h158c11 0 24-15 24-38v-18c0-22-13-38-24-38H124V352h158c20 0 39 5 58 14 17 9 32 22 45 38 13 15 22 33 29 52 7 20 11 42 11 63v18c0 22-4 43-11 63-5 15-11 28-19 40a179 179 0 0 1 30 103v18a192 192 0 0 1-40 116c-13 15-28 28-45 37-18 9-38 14-58 14Z"/></svg>