<svg xmlns="http://www.w3.org/2000/svg" viewBox="0 0 2210 2048"><path d="M1743 514h85V344h-85a337 337 0 0 0-314 208c-18 42-27 86-27 132v31l86 224c0 94-77 170-170 170H638V684h255V514H638V344H468v170a337 337 0 0 0-314 208c-17 42-26 86-26 132v85a337 337 0 0 0 207 313c42 18 87 27 133 27v425H213v170h255v170h170v-170a337 337 0 0 0 313-208c17-42 26-86 26-132v-85a337 337 0 0 0-45-170h385c94 0 171 76 171 170l-85 224v31a337 337 0 0 0 207 313c42 18 87 27 132 27h86v-170h-85c-94 0-170-76-170-170l85-224v-31a337 337 0 0 0-116-255l16-15a338 338 0 0 0 100-240v-31l-85-224c0-94 76-170 170-170ZM468 1109c-94 0-170-76-170-170v-85c0-94 76-170 170-170v425Zm340 425c0 94-77 170-170 170v-425c93 0 170 76 170 170v85Z"/></svg>