<svg xmlns="http://www.w3.org/2000/svg" viewBox="0 0 2210 2048"><path d="M1743 514h85V344h-85a337 337 0 0 0-314 208c-18 42-27 86-27 132v31l53 139H871l21-340H723l-21 340H446l22-340H297l-21 340H128v170h137l-21 340H128v170h106l-22 340h171l21-340h255l-21 340h170l21-340h626l-52 139v31a337 337 0 0 0 207 313c42 18 87 27 132 27h86v-170h-85c-94 0-170-76-170-170l85-224v-31a337 337 0 0 0-116-255l16-15a338 338 0 0 0 100-240v-31l-85-224c0-94 76-170 170-170ZM669 1364H415l21-340h254l-21 340Zm564-85h85c62 0 117 34 147 85H840l21-340h604c-30 51-85 85-147 85h-170v170h85Z"/></svg>