<svg xmlns="http://www.w3.org/2000/svg" viewBox="0 0 2048 674"><rect width="2048" height="674" rx="204" ry="204" fill="#6060ff"/><g fill="#fff"><path d="m751 161 3 18v90a46 46 0 0 1-19 38c-8 5-16 7-25 7h-68V134h67c10 0 18 2 25 7 8 5 13 12 17 20Zm-42 131c7 0 12-3 16-7 5-5 7-10 7-16v-90c0-7-2-12-7-16-4-5-9-7-16-7h-45v136h45ZM898 206l3 18v45c0 6-1 12-3 17a45 45 0 0 1-42 28h-22c-7 0-13-1-18-4a45 45 0 0 1-28-41v-45c0-6 1-12 4-18a45 45 0 0 1 41-27h23c9 0 18 2 25 7 8 5 13 12 17 20Zm-42 86c6 0 12-3 16-7 4-5 7-10 7-16v-45c0-6-3-12-7-16s-10-7-16-7h-22c-7 0-12 3-16 7-5 4-7 10-7 16v45c0 6 2 12 7 16 4 4 9 6 16 6h22ZM1036 179h23l-11 135h-26l-31-58-30 58h-26l-11-135h23l8 99 22-43h29l22 42 9-98ZM1191 206c2 6 4 12 4 18v90h-23v-90c0-6-2-12-7-16-4-4-9-7-15-7h-23c-6 0-12 3-16 7s-7 10-7 16v90h-22V179h22v6c7-4 15-6 23-6h23c9 0 17 2 25 7 7 5 13 12 16 20ZM1319 292h22v22h-22c-7 0-13-1-18-3a45 45 0 0 1-28-42V156h-45v-23h68v136c0 6 2 11 7 16 4 4 9 6 15 6ZM1484 206c3 6 4 12 4 18v45c0 6-1 12-4 17a45 45 0 0 1-41 28h-23c-6 0-12-1-18-4a45 45 0 0 1-27-41v-45a46 46 0 0 1 20-38c7-5 16-7 25-7h23c9 0 17 2 25 7 7 5 13 12 16 20Zm-41 86c6 0 11-3 16-7 4-5 6-10 6-16v-45c0-6-2-12-6-16-5-4-10-7-16-7h-23c-6 0-11 3-16 7-4 4-6 10-6 16v45c0 6 2 12 6 16 5 4 10 6 16 6h23ZM1631 206c2 6 4 12 4 18v90h-23v-6c-7 4-14 6-23 6h-28c-8 0-15-2-22-7-6-4-11-10-14-17-2-5-3-10-3-16 0-10 3-20 11-27s17-12 28-12h51v-11c0-6-2-12-7-16-4-4-9-7-16-7h-56v-22h56c10 0 18 2 25 7 8 6 13 12 17 20Zm-41 86c6 0 11-3 15-7 5-5 7-10 7-16v-11h-51a16 16 0 0 0-15 17c0 4 1 8 4 11s7 5 11 5h29ZM1781 314h-22v-6c-7 4-15 6-23 6h-22c-7 0-13-1-18-3a45 45 0 0 1-28-42v-45a46 46 0 0 1 20-38c8-5 16-7 25-7h23c8 0 16 2 23 6v-51h22v180Zm-22-45v-45c0-6-3-12-7-16s-10-7-16-7h-22c-7 0-12 3-16 7-5 4-7 10-7 16v45c0 6 2 12 7 16 4 4 9 6 16 6h22c6 1 12-2 16-6 4-5 7-10 7-16ZM755 360v23h-46v158h-22V383h-45v-23h112ZM898 433c2 5 3 11 3 17v45c0 7-1 12-3 18a45 45 0 0 1-42 28h-22c-7 0-13-2-18-4a45 45 0 0 1-28-41v-46c0-6 1-12 4-17a45 45 0 0 1 41-28h23c9 0 18 3 25 8 8 5 13 11 17 20Zm-42 85c6 0 12-2 16-7 4-4 7-9 7-16v-45c0-6-3-11-7-16-4-4-10-6-16-6h-22a22 22 0 0 0-22 23v44c-1 7 1 12 6 16 4 5 9 7 16 7h22ZM1025 405h23v136h-23v-6c-7 4-14 6-22 6h-23c-6 0-12-2-17-4a45 45 0 0 1-28-41v-91h23v91a22 22 0 0 0 23 22h22c6 0 11-2 16-7 4-4 6-9 6-16v-90ZM1191 433c2 5 4 11 4 17v91h-23v-91c0-6-2-11-7-16-4-4-9-6-15-6h-23c-6 0-12 2-16 6-4 5-7 10-7 16v91h-22V360h22v51c7-4 15-6 23-6h23c9 0 17 3 25 8 7 5 13 12 16 20ZM1338 433c2 5 3 11 3 17v91h-22v-6c-7 4-15 6-23 6h-28c-8 0-16-3-22-7a41 41 0 0 1-18-33c0-11 4-20 12-28 7-8 16-11 27-11h51v-12c0-6-2-11-6-16-5-4-10-6-16-6h-57v-23h57c9 0 17 3 25 8 7 5 13 12 16 20Zm-42 85c6 0 12-2 16-7 4-4 7-9 7-16v-11h-51c-5 1-8 2-11 6-3 3-5 7-5 11s2 8 5 12c3 3 6 5 11 5h28ZM1398 541h-23V360h23v51c7-4 14-6 22-6h23c6 0 12 1 17 4a45 45 0 0 1 28 41v46a46 46 0 0 1-20 37c-8 5-16 8-25 8h-23c-8 0-15-2-22-6v6Zm0-91v45a22 22 0 0 0 23 22h22c6 1 11-1 16-6 4-4 6-9 6-16v-45c0-6-2-11-6-16-5-4-10-6-16-6h-23c-6 0-11 2-16 6-4 5-6 10-6 16ZM1631 433c2 5 4 11 4 17v91h-23v-6c-7 4-14 6-23 6h-28c-8 0-15-3-22-7-6-5-11-10-14-18l-3-15c0-11 3-20 11-28s17-11 28-11h51v-12c0-6-2-11-7-16-4-4-9-6-16-6h-56v-23h56c10 0 18 3 25 8 8 5 13 12 17 20Zm-41 85c6 0 11-2 15-7 5-4 7-9 7-16v-11h-51c-4 1-8 2-11 6-3 3-4 7-4 11s1 8 4 12c3 3 7 5 11 5h29ZM518 292h-72V184H339v108h-72l126 126 125-126ZM267 454v36h251v-36H267Z"/></g></svg>