<svg xmlns="http://www.w3.org/2000/svg" viewBox="0 0 2048 522"><path d="M0 0h2048v522H0z"/><g fill="#fff"><path d="m119 153-8-26H86l-8 26H67l26-85h11l26 85h-11Zm-30-37h19l-9-30-10 30ZM192 103l-4 7-1 1 5 7 2 8v6a21 21 0 0 1-21 21h-32V68h32l8 2c4 2 7 4 9 8 3 3 4 7 4 11v6l-2 8Zm-41-24v26h22a10 10 0 0 0 11-11v-5l-4-7c-2-2-5-3-7-3h-22Zm32 53v-5c0-3-1-6-3-8s-5-3-7-3h-22v26h22c2 0 5-1 7-3s3-4 3-7ZM233 79c-3 0-5 1-7 3s-3 5-3 8v42c0 3 1 5 3 7s4 3 7 3h27v11h-27l-8-2c-4-1-7-4-9-7-3-4-4-8-4-12V90l2-9c1-4 4-7 7-9 4-2 8-4 12-4h27v11h-27ZM330 81l1 8v43a21 21 0 0 1-21 21h-32V68h32c4 0 8 1 12 4 3 2 6 5 7 9Zm-20 61c3 0 5-1 8-3s3-4 3-7V90c0-3-1-6-3-8s-5-3-8-3h-21v63h21ZM397 79h-37v26h37v11h-37v26h37v11h-47V68h47v11ZM466 79h-37v26h37v11h-37v37h-11V68h48v11ZM511 105h26v27a21 21 0 0 1-21 21h-10a21 21 0 0 1-18-9l-3-12V89a21 21 0 0 1 21-21h26v11h-26c-3 0-6 1-8 3s-3 4-3 7v43c0 3 1 5 3 7s5 3 8 3h10c3 0 6-1 8-3s3-4 3-7v-16h-16v-11ZM596 68h10v85h-10v-37h-32v37h-11V68h11v37h32V68ZM672 79h-18v63h18v11h-47v-11h18V79h-18V68h47v11ZM699 68h42v64l-2 8c-1 4-4 7-7 9-4 3-8 4-12 4h-27v-11h27c3 0 5-1 7-3s3-4 3-7V79h-31V68ZM813 68l-30 43 30 42h-13l-30-42v42h-10V68h10v43l30-43h13ZM842 142h37v11h-48V68h10v74ZM938 68h12v85h-11V88l-9 17h-13l-9-17v65h-11V68h12l14 27 15-27ZM1008 68h11v85h-12l-31-63v63h-10V68h12l30 63V68ZM1086 81l1 8v43c1 3 0 5-1 8-2 4-4 7-8 9-3 3-7 4-12 4h-10a21 21 0 0 1-18-9l-3-12V90a21 21 0 0 1 21-22h10c5 0 9 2 12 4 4 2 6 5 8 9Zm-20 61c3 0 6-1 8-3s3-4 3-7V90c0-3-1-6-3-8s-5-3-8-3h-10c-3 0-6 1-8 3s-3 5-3 8v42c0 3 1 5 3 7s5 3 8 3h10ZM1155 81l1 8v6a21 21 0 0 1-21 21h-21v37h-11V68h32c4 0 8 1 12 4 3 2 6 5 7 9Zm-20 24c3 0 5-1 8-3 2-2 3-4 3-7v-5c0-3-1-6-4-8-2-2-4-3-7-3h-21v26h21ZM1223 81l2 8v43l-2 8c-1 4-4 7-7 9-4 3-8 4-12 4 0 3 1 5 3 8s4 3 7 3h6v10h-6a21 21 0 0 1-17-9c-3-4-4-8-4-12l-8-2c-4-1-7-4-9-7-3-4-4-8-4-12V90a21 21 0 0 1 21-22h11c4 0 8 2 12 4 3 2 6 5 7 9Zm-9 51V90c0-3-1-6-3-8s-4-3-7-3h-11c-3 0-5 1-7 3s-3 5-3 8v42c0 3 1 5 3 7s4 3 7 3h11c3 0 5-1 7-3s3-4 3-7ZM1281 114l-8 2h-8l29 37h-14l-29-37v37h-10V68h31a21 21 0 0 1 18 10c2 3 3 7 3 11v6a21 21 0 0 1-12 19Zm-30-9h22c2 0 5-1 7-3s3-4 3-7v-6c0-2-1-5-3-7s-5-3-7-3h-22v26ZM1361 118l1 8v6a21 21 0 0 1-21 21h-26v-11h26c3 0 6-1 8-3s3-4 3-7v-5c0-3-1-6-3-8s-5-3-8-3h-10a21 21 0 0 1-18-9l-3-12v-6a21 21 0 0 1 21-21h26v11h-26c-3 0-6 1-8 3s-3 4-3 7v6c0 3 1 5 3 7s5 3 8 3h10c5 0 8 1 12 4 4 2 6 5 8 9ZM1431 68v11h-21v74h-11V79h-21V68h53ZM1489 68h11v64a21 21 0 0 1-21 21h-11a21 21 0 0 1-17-9c-3-4-4-8-4-12V68h11v64c0 3 1 5 3 7s4 3 7 3h11c3 0 5-1 7-3s3-4 3-7V68ZM1558 68h11l-21 85h-11l-21-85h11l15 63 16-63ZM1632 68h11l-6 85h-11l-15-35-15 35h-11l-6-85h11l4 63 11-26h12l11 26 4-63ZM1706 68l-20 43 20 42h-12l-14-30-15 30h-12l21-42-21-43h12l15 30 14-30h12ZM1780 68l-26 43v42h-11v-42l-26-43h12l19 31 20-31h12ZM1844 68v11l-41 63h41v11h-53v-11l40-63h-40V68h53ZM123 242l2 8v42h-11v-2c-3 2-6 3-10 3H91c-4 0-8-1-11-4a19 19 0 0 1-8-15 18 18 0 0 1 18-18h24v-6c0-3-1-5-3-7s-4-3-7-3H77v-11h27c4 0 8 1 12 4 3 2 6 5 7 9Zm-19 40c3 0 5-1 7-3s3-5 3-8v-5H91a8 8 0 0 0-8 8l2 5c2 2 3 3 6 3h13ZM151 293h-10v-85h10v24c4-2 7-3 11-3h11a21 21 0 0 1 17 9c2 4 4 8 4 12v21a21 21 0 0 1-21 22h-11c-4 0-7-1-11-3v3Zm0-43v21c0 3 1 6 4 8 2 2 4 3 7 3h11a10 10 0 0 0 11-11v-21l-4-7c-2-2-5-3-7-3h-11c-3 0-5 1-7 3s-4 4-4 7ZM233 240c-3 0-5 1-7 3s-3 4-3 7v21c0 3 1 6 3 8s4 3 7 3h27v11h-27l-8-2c-4-2-7-4-9-8-3-3-4-7-4-11v-22l2-8c1-4 4-7 7-9 4-3 8-4 12-4h27v11h-27ZM331 293h-10v-3c-4 2-7 2-11 2h-11a21 21 0 0 1-17-9c-3-3-4-7-4-12v-21a21 21 0 0 1 21-21h11c4 0 7 1 11 3v-24h10v84Zm-10-22v-21c0-3-1-5-4-7-2-2-4-3-7-3h-11c-3 0-5 1-7 3s-3 4-3 7v21c0 3 1 6 3 8s4 3 7 3h11c3 0 5-1 7-3 3-2 4-5 4-8ZM400 266h-42v5c0 3 1 6 3 8s4 3 7 3h27v11h-27a21 21 0 0 1-17-10c-3-3-4-7-4-11v-22a21 21 0 0 1 21-21h14c5 0 9 2 13 5 3 4 5 8 5 13v19Zm-32-26c-3 0-5 1-7 3s-3 4-3 7v6h31v-8c0-2 0-4-2-6l-6-2h-13ZM458 219c-3 0-5 1-7 3s-3 4-3 7h21v11h-22v53h-10v-53h-21v-11h21a21 21 0 0 1 21-21h11v10h-11ZM527 229h10v64a21 21 0 0 1-21 21h-26v-11h26c3 0 6-1 8-3s3-5 3-8v-2c-4 2-7 2-11 2h-10a21 21 0 0 1-18-9c-2-3-4-7-4-12v-21a21 21 0 0 1 21-21h11c4 0 8 1 11 3v-3Zm0 42v-21c0-3-1-5-3-7s-5-3-8-3h-10c-3 0-6 1-8 3s-3 4-3 7v21c0 3 1 6 3 8s5 3 8 3h10c3 0 6-1 8-3s3-5 3-8ZM605 242l1 8v42h-10v-42c0-3-1-5-3-7s-5-3-8-3h-11c-3 0-5 1-7 3s-3 4-3 7v42h-11v-84h11v24c3-2 7-3 10-3h11c4 0 8 1 12 4 3 2 6 5 7 9ZM664 282h11v10h-11a21 21 0 0 1-17-9c-3-3-4-7-4-12v-31h-21v-11h32v42c0 3 1 6 3 8s5 3 7 3Zm-21-61c-2-1-2-3-2-5l2-6c2-2 3-2 5-2l6 2 2 6c0 2 0 4-2 5l-5 3c-2 0-5-1-6-3ZM699 229h42v64l-2 8c-1 4-4 7-7 9-4 2-8 4-12 4h-27v-11h27c3 0 5-1 7-3s3-5 3-8v-52h-31v-11Zm31-8-2-5 2-6 6-2 5 2 3 6c0 2-1 4-3 5-1 2-3 3-5 3l-6-3ZM813 229l-29 32 28 31h-14l-28-31v31h-10v-84h10v53l28-32h14ZM871 282h10v10h-10a21 21 0 0 1-18-9c-2-3-3-7-3-12v-53h-22v-10h32v63c0 3 1 6 3 8s5 3 8 3ZM945 234c3 3 5 6 5 11v47h-11v-47l-1-4-4-1a6 6 0 0 0-5 5v48h-11v-48l-1-4-4-1a6 6 0 0 0-5 5v48h-11v-64h11v1l1-1h4c4 0 7 1 10 4 3-3 7-4 11-4s8 2 11 5ZM1017 242l2 8v42h-11v-42c0-3-1-5-3-7s-5-3-7-3h-11c-3 0-6 1-8 3s-3 4-3 7v42h-10v-63h10v3c4-2 7-3 11-3h10c5 0 9 1 12 4 4 2 6 5 8 9ZM1086 242l1 8v21c1 3 0 6-1 9-2 3-4 7-8 9-3 2-7 4-12 4h-10a21 21 0 0 1-18-10c-2-3-3-7-3-12v-21a21 21 0 0 1 21-21h10c5 0 9 1 12 4 4 2 6 5 8 9Zm-20 40c3 0 6-1 8-3s3-5 3-8v-21c0-3-1-5-3-7-2-3-5-4-8-4h-10c-3 0-6 1-8 4-2 2-3 4-3 7v21c0 3 1 6 3 8s5 3 8 3h10ZM1103 229h11v3c3-2 7-3 10-3h11a21 21 0 0 1 18 9l3 12v21a21 21 0 0 1-21 22h-11c-3 0-7-1-10-3v24h-11v-85Zm11 21v21c0 3 1 6 3 8s5 3 7 3h11c3 0 5-1 8-3 2-2 3-5 3-8v-21c0-3-1-5-3-7-3-2-5-3-8-3h-11c-2 0-5 1-7 3s-3 4-3 7ZM1214 229h11v85h-11v-24c-3 2-6 2-10 2h-11a21 21 0 0 1-17-9c-3-3-4-7-4-12v-21a21 21 0 0 1 21-21h11c4 0 7 1 11 3v-3Zm0 42v-21c0-3-1-5-3-7s-4-3-7-3h-11c-3 0-5 1-7 3s-3 4-3 7v21c0 3 1 6 3 8s4 3 7 3h11c3 0 5-1 7-3s3-5 3-8ZM1265 229h26v11h-26c-3 0-6 1-8 3s-3 4-3 7v42h-11v-63h11v3c3-2 7-3 11-3ZM1361 267l2 7c0 5-2 10-6 13-4 4-8 6-13 6h-29v-11h29a8 8 0 0 0 7-8c0-2 0-4-2-6l-5-2h-16a18 18 0 0 1-17-11l-1-8c0-5 1-9 5-13 4-3 8-5 13-5h29v10h-29a8 8 0 0 0-7 8c0 3 0 4 2 6l5 2h16c4 0 7 1 10 4 3 2 6 4 7 8ZM1431 240h-21v31c0 3 1 6 3 8s5 3 8 3h10v11h-10a21 21 0 0 1-18-10c-2-3-3-7-3-12v-31h-22v-11h21v-21h11v21h21v11ZM1489 229h11v64h-11v-3c-3 2-6 2-10 2h-11a21 21 0 0 1-17-9c-3-3-4-7-4-12v-42h11v42c0 3 1 6 3 8s4 3 7 3h11c3 0 5-1 7-3s3-5 3-8v-42ZM1558 229h11l-21 64h-12l-20-64h11l15 47 16-47ZM1632 229h11l-6 64h-12l-14-28-14 27h-12l-6-63h11l4 46 10-19h14l10 19 4-46ZM1706 229l-20 32 20 31h-12l-14-21-14 21h-13l20-31-20-32h13l14 22 14-22h12ZM1733 303c2 0 5-1 7-3s3-5 3-7l-21-64h11l16 47 15-47h11l-21 64-2 8c-2 4-4 7-8 9-3 2-7 4-11 4h-6v-11h5ZM1844 229v11l-39 42h39v10h-53v-10l38-42h-38v-11h53ZM123 360l2 9v42l-2 8c-1 4-4 7-7 9-4 3-8 4-12 4H93a21 21 0 0 1-17-9c-3-4-4-8-4-12v-42a21 21 0 0 1 21-21h11l12 3c3 3 6 6 7 10Zm-30-2c-3 0-5 1-7 3s-3 5-3 8v29l31-31c0-3-1-5-3-6-2-2-5-3-7-3H93Zm11 64c3 0 5-1 7-4 2-2 3-4 3-7v-30l-31 32c0 2 2 4 4 6 1 2 4 2 6 2h11ZM173 422h21v10h-53v-10h21v-63l-21 10v-12l21-10h11v74ZM263 369v3l-40 50h39v10h-52v-10l42-53c0-3-1-6-3-8s-5-3-8-3h-26v-11h26l8 2c4 2 7 4 10 8 2 3 3 7 3 11h1ZM327 382l-5 7-1 1c3 2 5 4 6 7l2 8v6l-2 8c-2 4-4 7-8 9-3 3-7 4-11 4h-27v-11h26c3 0 6-1 8-3s3-4 3-7v-5c0-3-1-6-3-8s-5-3-8-3h-26v-11h26c3 0 6-1 8-3s3-4 3-7v-6c0-2-1-5-3-7s-5-3-8-3h-26v-11h26l9 2c3 2 7 4 9 8 2 3 4 7 4 11v6l-2 8ZM389 347h11v85h-11v-37h-42v-48h11v37h31v-37ZM467 397l2 9v5a21 21 0 0 1-21 21h-27v-11h26c3 0 6-1 8-3s3-4 3-7v-5c0-3-1-6-3-8s-5-3-8-3h-31v-48h47v11h-37v26h22c4 0 8 2 11 4 4 2 6 5 8 9ZM536 397l1 9v5a21 21 0 0 1-21 21h-10a21 21 0 0 1-18-9l-3-12v-42a21 21 0 0 1 21-21h26v10h-26c-3 0-6 1-8 3s-3 5-3 8v18l11-2h10c5 0 9 1 12 3 4 3 6 6 8 10Zm-20 24c3 1 6 0 8-3 2-2 3-4 3-7v-5c0-3-1-6-3-8s-5-3-8-3h-10c-3 0-6 1-8 3s-3 5-3 8v5c0 3 1 5 3 7s5 3 8 3h10ZM553 347h53v11l-41 74h-12l41-74h-41v-11ZM673 382l-4 7-1 1c5 4 7 9 7 15v6l-2 8c-1 4-4 7-7 9-4 3-8 4-12 4h-11a21 21 0 0 1-17-9c-3-4-4-8-4-12v-5c0-6 2-11 6-15l1-1-5-7-2-9v-5a21 21 0 0 1 21-21h11l8 1c4 2 7 4 10 8 2 3 3 7 3 12v5c0 3 0 6-2 8Zm-40-13v5c0 3 1 5 3 7 2 3 4 4 7 4h11c3 0 5-1 7-4s3-4 3-7v-5c1-3 0-6-3-8-2-2-4-3-7-3h-11c-3 0-5 1-7 3s-3 5-3 8Zm31 42v-5c0-3-1-6-3-8s-4-3-7-3h-11c-3 0-5 1-7 3s-3 5-3 8v5c0 3 1 5 3 7 2 3 4 4 7 4h11c3 0 5-1 7-4 2-2 3-4 3-7ZM692 382l-1-8v-5a21 21 0 0 1 21-22h10a21 21 0 0 1 18 10c2 3 4 7 4 12v42a21 21 0 0 1-22 21h-26v-11h26c3 0 6-1 8-3s3-4 3-7v-19c-3 2-7 3-11 3h-10c-5 0-9-1-12-4-4-2-6-5-8-9Zm20-24c-3 0-6 1-8 3s-3 5-3 8v5c0 3 1 5 3 7 2 3 5 4 8 4h10c3 0 6-1 8-4s3-4 3-7v-5c0-3-1-6-3-8s-5-3-7-3h-11ZM779 429c-3-2-4-5-4-8s1-5 3-7c3-2 5-3 8-3s5 1 8 3c2 2 3 4 3 7s-1 6-3 8c-3 2-5 3-8 3s-5-1-7-3ZM847 387c-2-2-3-5-3-8s1-5 3-7 5-3 8-3 5 1 7 3 3 4 3 7-1 6-3 8-4 3-7 3-6-1-8-3Zm0 42c-2-2-3-5-3-8s1-5 3-7 5-3 8-3 5 1 7 3 3 5 3 7-1 6-3 8-4 3-7 3-6-1-8-3ZM924 411c2 0 5 1 7 3s3 5 3 8v10a21 21 0 0 1-21 21h-16v-10h16c3 0 5-1 7-3 2-3 3-5 3-8-2 0-5-1-7-3s-3-5-3-8 1-5 3-7 5-3 7-3ZM985 387c-2-2-3-5-3-8s1-5 3-7 4-3 7-3 6 1 8 3 3 4 3 7-1 6-3 8-5 3-8 3-5-1-7-3Zm0 42c-2-2-3-5-3-8s1-5 3-7 4-3 7-3 6 1 8 3 3 5 3 7-1 6-3 8-5 3-8 3-5-1-7-3ZM1136 374h-13v-27h13v27ZM1192 374h-13v-27h13v27Zm26 0h-13v-27h13v27ZM1352 441v12a60 60 0 0 1 0-106v13a50 50 0 0 0-21 40c0 8 2 16 5 23 4 7 9 13 16 18ZM1397 429c-2-2-3-5-3-8s1-5 3-7 5-3 8-3 5 1 7 3 3 4 3 7-1 6-3 8-4 3-7 3-6-1-8-3Zm13-29h-11v-53h11v53ZM1498 360l2 9v5a21 21 0 0 1-21 21v5h-11v-16h11c3 1 5 0 7-3 2-2 3-4 3-7v-5c0-3-1-6-3-8s-4-3-7-3h-27v-11h27c4 0 8 2 12 4 3 2 6 5 7 9Zm-32 69c-2-2-3-5-3-7s1-6 3-8 5-3 8-3 5 1 7 3 3 5 3 8-1 5-3 7-5 3-7 3-6-1-8-3ZM1526 441a50 50 0 0 0 22-41c0-8-2-16-6-23s-9-13-16-17v-13a60 60 0 0 1 0 106v-12ZM1706 395v11h-21v21h-11v-21h-21v-11h21v-21h11v21h21ZM1722 395h53v11h-53v-11ZM1843 392l-15 8 15 9-6 9-14-9v18h-11v-18l-15 9-5-9 15-9-15-8 5-9 15 8v-17h11v17l14-8 6 9ZM1860 443l41-96h11l-41 96h-11ZM1928 385h53v10h-53v-10Zm0 21h53v10h-53v-10Z"/></g></svg>